<?xml version="1.0" standalone="no"?>
<!DOCTYPE svg PUBLIC "-//W3C//DTD SVG 20010904//EN"
 "http://www.w3.org/TR/2001/REC-SVG-20010904/DTD/svg10.dtd">
<svg version="1.0" xmlns="http://www.w3.org/2000/svg"
 width="260.000000pt" height="260.000000pt" viewBox="0 0 260.000000 260.000000"
 preserveAspectRatio="xMidYMid meet">
<metadata>
Created by potrace 1.14, written by Peter Selinger 2001-2017
</metadata>
<g transform="translate(0.000000,260.000000) scale(0.100000,-0.100000)"
fill="#000000" stroke="none">
<path d="M78 2577 c-17 -12 -41 -38 -52 -57 -21 -35 -21 -45 -23 -1205 -3
-1293 -7 -1219 59 -1282 l29 -28 1200 -2 1199 -1 32 22 c18 11 43 41 55 66
l22 45 -2 1175 c-2 1165 -2 1175 -23 1210 -11 19 -34 45 -52 56 l-32 22 -1190
0 -1190 0 -32 -21z"/>
</g>
</svg>
